<svg xmlns="http://www.w3.org/2000/svg" width="375" viewBox="0 0 375 375" height="375" version="1.0"><defs><clipPath id="a"><path d="M 4.316406 25.839844 L 370.316406 25.839844 L 370.316406 349.089844 L 4.316406 349.089844 Z M 4.316406 25.839844"/></clipPath></defs><path fill="#DAD8DA" d="M 242.164062 269.800781 C 228.691406 269.800781 217.785156 258.890625 217.785156 245.40625 C 217.785156 238.710938 220.523438 232.609375 224.90625 228.132812 C 229.378906 223.75 235.472656 221.007812 242.164062 221.007812 L 315.296875 221.007812 C 328.769531 221.007812 339.671875 231.921875 339.671875 245.40625 C 339.671875 252.101562 336.933594 258.199219 332.554688 262.679688 C 328.078125 267.0625 321.984375 269.800781 315.296875 269.800781 L 242.164062 269.800781"/><path fill="#DAD8DA" d="M 242.164062 172.214844 C 228.691406 172.214844 217.785156 161.304688 217.785156 147.820312 C 217.785156 141.125 220.523438 135.027344 224.90625 130.546875 C 229.378906 126.164062 235.472656 123.425781 242.164062 123.425781 L 315.296875 123.425781 C 328.769531 123.425781 339.671875 134.335938 339.671875 147.820312 C 339.671875 154.515625 336.933594 160.613281 332.554688 165.09375 C 328.078125 169.476562 321.984375 172.214844 315.296875 172.214844 L 242.164062 172.214844"/><path fill="#AAA8AF" d="M 242.164062 221.007812 C 228.691406 221.007812 217.785156 210.097656 217.785156 196.613281 C 217.785156 189.917969 220.523438 183.820312 224.90625 179.339844 C 229.378906 174.957031 235.472656 172.214844 242.164062 172.214844 L 315.296875 172.214844 C 328.769531 172.214844 339.671875 183.128906 339.671875 196.613281 C 339.671875 203.308594 336.933594 209.40625 332.554688 213.886719 C 328.078125 218.269531 321.984375 221.007812 315.296875 221.007812 L 242.164062 221.007812"/><path fill="#A47444" d="M 364.050781 269.800781 L 364.050781 294.199219 L 10.578125 294.199219 L 10.578125 269.800781 L 364.050781 269.800781"/><path fill="#C0935C" d="M 345.765625 294.199219 L 345.765625 342.988281 L 28.863281 342.988281 L 28.863281 294.199219 L 345.765625 294.199219"/><path fill="#F9AC3E" d="M 59.332031 92.929688 C 52.597656 92.929688 47.144531 98.382812 47.144531 105.125 C 47.144531 111.867188 52.597656 117.324219 59.332031 117.324219 C 66.070312 117.324219 71.523438 111.867188 71.523438 105.125 C 71.523438 98.382812 66.070312 92.929688 59.332031 92.929688"/><path fill="#F9AC3E" d="M 156.84375 92.929688 C 163.582031 92.929688 169.03125 98.382812 169.03125 105.125 C 169.03125 111.867188 163.582031 117.324219 156.84375 117.324219 C 150.105469 117.324219 144.65625 111.867188 144.65625 105.125 C 144.65625 98.382812 150.105469 92.929688 156.84375 92.929688"/><path fill="#FABD60" d="M 126.371094 147.820312 L 126.371094 166.117188 C 126.371094 168.238281 126.015625 170.335938 125.277344 172.214844 C 122.824219 179.339844 116.0625 184.414062 108.089844 184.414062 C 100.113281 184.414062 93.351562 179.339844 90.902344 172.214844 C 90.164062 170.335938 89.804688 168.238281 89.804688 166.117188 L 89.804688 147.820312 L 126.371094 147.820312"/><path fill="#5798D8" d="M 193.410156 220.222656 L 193.410156 269.800781 L 22.769531 269.800781 L 22.769531 220.222656 C 22.769531 208.261719 28.550781 197.207031 38.003906 190.441406 C 39.957031 189.058594 42.027344 187.894531 44.21875 186.867188 L 76.402344 172.214844 L 89.804688 166.117188 C 89.804688 168.238281 90.164062 170.335938 90.902344 172.214844 C 93.351562 179.339844 100.113281 184.414062 108.089844 184.414062 C 116.0625 184.414062 122.824219 179.339844 125.277344 172.214844 C 126.015625 170.335938 126.371094 168.238281 126.371094 166.117188 L 139.773438 172.214844 L 171.960938 186.867188 C 174.148438 187.894531 176.222656 189.058594 178.171875 190.441406 C 187.625 197.207031 193.410156 208.261719 193.410156 220.222656"/><path fill="#DAD8DA" d="M 178.839844 186.441406 L 178.171875 190.441406 L 169.03125 245.40625 L 47.144531 245.40625 L 38.003906 190.441406 L 37.335938 186.441406 C 36.050781 178.984375 41.835938 172.214844 49.335938 172.214844 L 166.839844 172.214844 C 174.339844 172.214844 180.125 178.984375 178.839844 186.441406"/><path fill="#AAA8AF" d="M 169.03125 245.40625 L 169.03125 257.601562 C 169.03125 264.296875 163.53125 269.800781 156.84375 269.800781 L 59.332031 269.800781 C 52.621094 269.800781 47.144531 264.296875 47.144531 257.601562 L 47.144531 245.40625 L 169.03125 245.40625"/><path fill="#C6C3C9" d="M 108.089844 196.613281 C 114.777344 196.613281 120.277344 202.117188 120.277344 208.8125 C 120.277344 215.503906 114.777344 221.007812 108.089844 221.007812 C 101.398438 221.007812 95.898438 215.503906 95.898438 208.8125 C 95.898438 202.117188 101.398438 196.613281 108.089844 196.613281"/><path fill="#F9AC3E" d="M 126.371094 147.820312 L 126.371094 161.972656 C 120.824219 164.664062 114.683594 166.117188 108.089844 166.117188 C 101.496094 166.117188 95.351562 164.664062 89.804688 161.972656 L 89.804688 147.820312 L 126.371094 147.820312"/><path fill="#FABD60" d="M 150.75 94.574219 L 150.75 111.226562 C 150.75 112.679688 150.675781 114.15625 150.511719 115.5625 C 149.035156 130.738281 139.582031 143.554688 126.371094 149.773438 C 120.824219 152.464844 114.683594 153.917969 108.089844 153.917969 C 101.496094 153.917969 95.351562 152.464844 89.804688 149.773438 C 85.355469 147.699219 81.332031 144.84375 77.925781 141.410156 C 71.164062 134.644531 66.640625 125.617188 65.667969 115.5625 C 65.5 114.15625 65.429688 112.679688 65.429688 111.226562 L 65.429688 86.828125 L 91.828125 86.828125 C 102.351562 86.828125 112.660156 83.421875 121.0625 77.085938 L 132.464844 68.53125 L 135.75 78.46875 C 137.464844 83.46875 142.105469 86.828125 147.34375 86.828125 L 150.75 86.828125 L 150.75 94.574219"/><path fill="#4F4F57" d="M 162.9375 56.335938 L 162.9375 74.632812 L 150.75 86.828125 L 147.34375 86.828125 C 142.105469 86.828125 137.464844 83.46875 135.75 78.46875 L 132.464844 68.53125 L 121.0625 77.085938 C 112.660156 83.421875 102.351562 86.828125 91.828125 86.828125 L 65.429688 86.828125 L 47.144531 68.53125 L 53.238281 56.335938 L 41.050781 31.9375 L 138.558594 31.9375 C 152.035156 31.9375 162.9375 42.851562 162.9375 56.335938"/><path fill="#AE7B47" d="M 28.863281 294.199219 L 28.863281 306.394531 L 345.765625 306.394531 L 345.765625 294.199219 L 28.863281 294.199219"/><path fill="#100F0D" d="M 95.898438 99.027344 L 83.710938 99.027344 L 83.710938 111.226562 L 95.898438 111.226562 L 95.898438 99.027344"/><path fill="#100F0D" d="M 132.464844 99.027344 L 120.277344 99.027344 L 120.277344 111.226562 L 132.464844 111.226562 L 132.464844 99.027344"/><g clip-path="url(#a)"><path fill="#100F0D" d="M 357.957031 288.097656 L 16.671875 288.097656 L 16.671875 275.898438 L 357.957031 275.898438 Z M 339.671875 336.890625 L 34.957031 336.890625 L 34.957031 300.296875 L 339.671875 300.296875 Z M 28.863281 220.222656 C 28.863281 214.125 30.695312 208.261719 33.980469 203.308594 L 41.050781 245.90625 L 41.050781 257.601562 C 41.050781 259.722656 41.480469 261.820312 42.144531 263.703125 L 28.863281 263.703125 Z M 162.9375 251.503906 L 162.9375 257.601562 C 162.9375 260.960938 160.199219 263.703125 156.84375 263.703125 L 59.332031 263.703125 C 55.976562 263.703125 53.238281 260.960938 53.238281 257.601562 L 53.238281 251.503906 Z M 44.71875 180.4375 C 45.859375 179.101562 47.503906 178.316406 49.335938 178.316406 L 166.839844 178.316406 C 168.675781 178.316406 170.316406 179.101562 171.484375 180.4375 C 172.675781 181.867188 173.101562 183.628906 172.863281 185.4375 L 163.867188 239.304688 L 52.335938 239.304688 L 43.3125 185.4375 C 43.074219 183.628906 43.480469 181.867188 44.71875 180.4375 Z M 120.277344 158.421875 L 120.277344 166.117188 L 95.898438 166.117188 L 95.898438 158.421875 C 99.875 159.46875 103.875 160.019531 108.089844 160.019531 C 112.300781 160.019531 116.300781 159.46875 120.277344 158.421875 Z M 82.257812 137.074219 C 76.285156 131.121094 72.546875 123.304688 71.710938 114.777344 C 71.59375 113.609375 71.523438 112.441406 71.523438 111.226562 L 71.523438 92.929688 L 91.828125 92.929688 C 103.636719 92.929688 115.347656 89.019531 124.730469 81.945312 L 129.347656 78.46875 L 130.015625 80.421875 C 132.226562 87.019531 137.894531 91.714844 144.65625 92.691406 L 144.65625 111.226562 C 144.65625 112.441406 144.582031 113.609375 144.417969 114.941406 C 143.203125 127.640625 135.324219 138.863281 123.753906 144.269531 C 113.992188 148.988281 102.230469 149.035156 92.351562 144.222656 C 88.640625 142.507812 85.234375 140.125 82.257812 137.074219 Z M 54.574219 67.316406 L 58.667969 59.074219 C 59.570312 57.359375 59.570312 55.308594 58.667969 53.59375 L 50.929688 38.039062 L 138.558594 38.039062 C 148.628906 38.039062 156.84375 46.257812 156.84375 56.335938 L 156.84375 72.128906 L 148.25 80.730469 L 147.34375 80.730469 C 144.726562 80.730469 142.394531 79.085938 141.535156 76.585938 L 138.25 66.578125 C 137.632812 64.746094 136.179688 63.292969 134.296875 62.742188 C 133.679688 62.503906 133.0625 62.433594 132.464844 62.433594 C 131.179688 62.433594 129.917969 62.863281 128.824219 63.648438 L 117.421875 72.175781 C 110.113281 77.679688 101.019531 80.730469 91.828125 80.730469 L 67.925781 80.730469 Z M 59.332031 111.226562 C 55.976562 111.226562 53.238281 108.484375 53.238281 105.125 C 53.238281 101.765625 55.976562 99.027344 59.332031 99.027344 Z M 162.9375 105.125 C 162.9375 108.484375 160.199219 111.226562 156.84375 111.226562 L 156.84375 99.027344 C 160.199219 99.027344 162.9375 101.765625 162.9375 105.125 Z M 175.125 257.601562 L 175.125 245.90625 L 182.195312 203.308594 C 185.480469 208.261719 187.316406 214.125 187.316406 220.222656 L 187.316406 263.703125 L 174.03125 263.703125 C 174.699219 261.820312 175.125 259.722656 175.125 257.601562 Z M 242.164062 227.109375 L 315.296875 227.109375 C 325.367188 227.109375 333.578125 235.328125 333.578125 245.40625 C 333.578125 255.484375 325.367188 263.703125 315.296875 263.703125 L 242.164062 263.703125 C 232.09375 263.703125 223.878906 255.484375 223.878906 245.40625 C 223.878906 235.328125 232.09375 227.109375 242.164062 227.109375 Z M 223.878906 196.613281 C 223.878906 186.535156 232.09375 178.316406 242.164062 178.316406 L 315.296875 178.316406 C 325.367188 178.316406 333.578125 186.535156 333.578125 196.613281 C 333.578125 206.691406 325.367188 214.910156 315.296875 214.910156 L 242.164062 214.910156 C 232.09375 214.910156 223.878906 206.691406 223.878906 196.613281 Z M 223.878906 147.820312 C 223.878906 137.742188 232.09375 129.523438 242.164062 129.523438 L 315.296875 129.523438 C 325.367188 129.523438 333.578125 137.742188 333.578125 147.820312 C 333.578125 157.898438 325.367188 166.117188 315.296875 166.117188 L 242.164062 166.117188 C 232.09375 166.117188 223.878906 157.898438 223.878906 147.820312 Z M 364.050781 263.703125 L 339.484375 263.703125 C 343.386719 258.578125 345.765625 252.289062 345.765625 245.40625 C 345.765625 235.398438 340.839844 226.558594 333.386719 221.007812 C 340.839844 215.457031 345.765625 206.617188 345.765625 196.613281 C 345.765625 186.605469 340.839844 177.765625 333.386719 172.214844 C 340.839844 166.664062 345.765625 157.828125 345.765625 147.820312 C 345.765625 130.976562 332.125 117.324219 315.296875 117.324219 L 242.164062 117.324219 C 225.332031 117.324219 211.691406 130.976562 211.691406 147.820312 C 211.691406 157.828125 216.621094 166.664062 224.070312 172.214844 C 216.621094 177.765625 211.691406 186.605469 211.691406 196.613281 C 211.691406 206.617188 216.621094 215.457031 224.070312 221.007812 C 216.621094 226.558594 211.691406 235.398438 211.691406 245.40625 C 211.691406 252.289062 214.074219 258.578125 217.976562 263.703125 L 199.503906 263.703125 L 199.503906 220.222656 C 199.503906 207.785156 194.003906 196.015625 184.765625 187.964844 L 184.863281 187.390625 C 185.71875 182.101562 184.269531 176.71875 180.792969 172.574219 C 177.316406 168.5 172.199219 166.117188 166.839844 166.117188 L 141.105469 166.117188 L 132.464844 162.210938 L 132.464844 153.371094 C 143.867188 146.796875 152.152344 135.8125 155.320312 123.234375 C 155.820312 123.234375 156.34375 123.425781 156.84375 123.425781 C 166.914062 123.425781 175.125 115.203125 175.125 105.125 C 175.125 95.789062 168.101562 88.234375 159.152344 87.066406 L 167.269531 78.96875 C 168.363281 77.800781 169.03125 76.273438 169.03125 74.632812 L 169.03125 56.335938 C 169.03125 39.492188 155.390625 25.839844 138.558594 25.839844 L 41.050781 25.839844 C 38.90625 25.839844 36.980469 26.933594 35.859375 28.699219 C 34.765625 30.53125 34.648438 32.796875 35.621094 34.679688 L 46.40625 56.335938 L 41.71875 65.792969 C 40.503906 68.175781 40.980469 70.984375 42.8125 72.867188 L 57.023438 87.066406 C 48.050781 88.234375 41.050781 95.789062 41.050781 105.125 C 41.050781 115.203125 49.289062 123.425781 59.332031 123.425781 C 59.882812 123.425781 60.355469 123.234375 60.855469 123.234375 C 62.976562 131.644531 67.378906 139.457031 73.59375 145.746094 C 76.640625 148.796875 80.117188 151.179688 83.710938 153.253906 L 83.710938 162.210938 L 75.070312 166.117188 L 49.335938 166.117188 C 43.980469 166.117188 38.859375 168.5 35.386719 172.574219 C 31.910156 176.71875 30.457031 182.101562 31.289062 187.390625 L 31.410156 187.964844 C 22.148438 196.015625 16.671875 207.785156 16.671875 220.222656 L 16.671875 263.703125 L 10.578125 263.703125 C 7.222656 263.703125 4.484375 266.441406 4.484375 269.800781 L 4.484375 294.199219 C 4.484375 297.558594 7.222656 300.296875 10.578125 300.296875 L 22.769531 300.296875 L 22.769531 342.988281 C 22.769531 346.347656 25.503906 349.089844 28.863281 349.089844 L 345.765625 349.089844 C 349.125 349.089844 351.863281 346.347656 351.863281 342.988281 L 351.863281 300.296875 L 364.050781 300.296875 C 367.40625 300.296875 370.144531 297.558594 370.144531 294.199219 L 370.144531 269.800781 C 370.144531 266.441406 367.40625 263.703125 364.050781 263.703125"/></g><path fill="#100F0D" d="M 108.089844 202.710938 C 111.445312 202.710938 114.183594 205.453125 114.183594 208.8125 C 114.183594 212.171875 111.445312 214.910156 108.089844 214.910156 C 104.730469 214.910156 101.992188 212.171875 101.992188 208.8125 C 101.992188 205.453125 104.730469 202.710938 108.089844 202.710938 Z M 108.089844 227.109375 C 118.183594 227.109375 126.371094 218.914062 126.371094 208.8125 C 126.371094 198.710938 118.183594 190.511719 108.089844 190.511719 C 97.996094 190.511719 89.804688 198.710938 89.804688 208.8125 C 89.804688 218.914062 97.996094 227.109375 108.089844 227.109375"/><path fill="#100F0D" d="M 321.390625 190.511719 L 309.203125 190.511719 L 309.203125 202.710938 L 321.390625 202.710938 L 321.390625 190.511719"/><path fill="#100F0D" d="M 284.824219 202.710938 L 297.011719 202.710938 L 297.011719 190.511719 L 284.824219 190.511719 L 284.824219 202.710938"/><path fill="#100F0D" d="M 236.070312 202.710938 L 248.257812 202.710938 L 248.257812 190.511719 L 236.070312 190.511719 L 236.070312 202.710938"/><path fill="#100F0D" d="M 321.390625 141.722656 L 309.203125 141.722656 L 309.203125 153.917969 L 321.390625 153.917969 L 321.390625 141.722656"/><path fill="#100F0D" d="M 284.824219 153.917969 L 297.011719 153.917969 L 297.011719 141.722656 L 284.824219 141.722656 L 284.824219 153.917969"/><path fill="#100F0D" d="M 236.070312 153.917969 L 248.257812 153.917969 L 248.257812 141.722656 L 236.070312 141.722656 L 236.070312 153.917969"/><path fill="#100F0D" d="M 321.390625 239.304688 L 309.203125 239.304688 L 309.203125 251.503906 L 321.390625 251.503906 L 321.390625 239.304688"/><path fill="#100F0D" d="M 284.824219 251.503906 L 297.011719 251.503906 L 297.011719 239.304688 L 284.824219 239.304688 L 284.824219 251.503906"/><path fill="#100F0D" d="M 236.070312 251.503906 L 248.257812 251.503906 L 248.257812 239.304688 L 236.070312 239.304688 L 236.070312 251.503906"/></svg>